<svg viewBox="0 0 72 72" xmlns="http://www.w3.org/2000/svg" xmlns:xlink="http://www.w3.org/1999/xlink"><defs><path d="M20.412 0h31.176c7.097 0 9.671.739 12.266 2.127a14.468 14.468 0 0 1 6.02 6.019C71.26 10.74 72 13.315 72 20.412v31.176c0 7.097-.739 9.671-2.127 12.266a14.468 14.468 0 0 1-6.019 6.02C61.26 71.26 58.685 72 51.588 72H20.412c-7.097 0-9.671-.739-12.266-2.127a14.468 14.468 0 0 1-6.02-6.019C.74 61.26 0 58.685 0 51.588V20.412c0-7.097.739-9.671 2.127-12.266a14.468 14.468 0 0 1 6.019-6.02C10.74.74 13.315 0 20.412 0Z" id="a"/></defs><g fill="none" fill-rule="evenodd"><mask id="b" fill="#fff"><use xlink:href="#a"/></mask><g mask="url(#b)"><path fill="#FFF" d="M0 0h72v72H0z"/><path d="M36.515 22.936c1.91 0 4.315-1.31 5.753-3.078 1.31-1.615 2.232-3.82 2.232-6.047 0-.305-.021-.61-.064-.851-2.147.087-4.722 1.44-6.246 3.274-1.224 1.397-2.34 3.624-2.34 5.85 0 .21.023.412.046.563l.04.223c.128.022.343.066.58.066Zm-6.74 33.224c2.619 0 3.778-1.768 7.04-1.768 3.306 0 4.058 1.724 6.956 1.724 2.876 0 4.787-2.685 6.611-5.326 2.018-3.034 2.877-5.981 2.898-6.134-.172-.044-5.667-2.336-5.667-8.732 0-5.544 4.315-8.033 4.572-8.23-2.855-4.169-7.212-4.3-8.414-4.3-3.199 0-5.818 1.987-7.492 1.987-1.782 0-4.1-1.856-6.89-1.856-5.303 0-10.669 4.453-10.669 12.836 0 5.239 1.975 10.762 4.443 14.32 2.104 3.012 3.95 5.479 6.612 5.479Z" fill="#000" fill-rule="nonzero"/></g></g></svg>